<?xml version="1.0" encoding="UTF-8" standalone="no"?>
<!-- Generator: Adobe Illustrator 17.0.1, SVG Export Plug-In . SVG Version: 6.00 Build 0)  -->

<svg
   xmlns:dc="http://purl.org/dc/elements/1.1/"
   xmlns:cc="http://creativecommons.org/ns#"
   xmlns:rdf="http://www.w3.org/1999/02/22-rdf-syntax-ns#"
   xmlns:svg="http://www.w3.org/2000/svg"
   xmlns="http://www.w3.org/2000/svg"
   xmlns:xlink="http://www.w3.org/1999/xlink"
   xmlns:sodipodi="http://sodipodi.sourceforge.net/DTD/sodipodi-0.dtd"
   xmlns:inkscape="http://www.inkscape.org/namespaces/inkscape"
   version="1.1"
   x="0px"
   y="0px"
   width="512"
   height="512"
   viewBox="0 0 512 512"
   enable-background="new 0 0 86 86"
   xml:space="preserve"
   id="svg2"
   inkscape:version="0.48.5 r10040"
   sodipodi:docname="cover.svg"
   inkscape:export-xdpi="90"
   inkscape:export-ydpi="90"><metadata
     id="metadata122"><rdf:RDF><cc:Work
         rdf:about=""><dc:format>image/svg+xml</dc:format><dc:type
           rdf:resource="http://purl.org/dc/dcmitype/StillImage" /><dc:title></dc:title></cc:Work></rdf:RDF></metadata><defs
     id="defs120"><linearGradient
       gradientTransform="translate(655,135)"
       y2="-134.7"
       x2="-612"
       y1="-49.299999"
       x1="-612"
       gradientUnits="userSpaceOnUse"
       id="SVGID_1_"><stop
         id="stop7"
         style="stop-color:#aaaaaa;stop-opacity:1;"
         offset="0" /><stop
         id="stop9"
         style="stop-color:#cccccc;stop-opacity:1;"
         offset="1" /></linearGradient><linearGradient
       inkscape:collect="always"
       xlink:href="#SVGID_1_-08"
       id="linearGradient10311-6"
       gradientUnits="userSpaceOnUse"
       gradientTransform="translate(655,135)"
       x1="-612"
       y1="-49.299999"
       x2="-612"
       y2="-134.7" /><linearGradient
       inkscape:collect="always"
       xlink:href="#SVGID_1_-6"
       id="linearGradient10311-3"
       gradientUnits="userSpaceOnUse"
       gradientTransform="translate(655,135)"
       x1="-612"
       y1="-49.299999"
       x2="-612"
       y2="-134.7" /><linearGradient
       gradientTransform="translate(655,135)"
       y2="-134.7"
       x2="-612"
       y1="-49.299999"
       x1="-612"
       gradientUnits="userSpaceOnUse"
       id="SVGID_1_-6"><stop
         id="stop7-3"
         style="stop-color:#dadada;stop-opacity:1;"
         offset="0" /><stop
         id="stop9-1"
         style="stop-color:#eeeeee;stop-opacity:1;"
         offset="1" /></linearGradient></defs><sodipodi:namedview
     pagecolor="#ffffff"
     bordercolor="#666666"
     borderopacity="1"
     objecttolerance="10"
     gridtolerance="10"
     guidetolerance="10"
     inkscape:pageopacity="0"
     inkscape:pageshadow="2"
     inkscape:window-width="1920"
     inkscape:window-height="1136"
     id="namedview118"
     showgrid="true"
     inkscape:showpageshadow="false"
     inkscape:zoom="1.8964844"
     inkscape:cx="167.67868"
     inkscape:cy="256"
     inkscape:window-x="0"
     inkscape:window-y="27"
     inkscape:window-maximized="1"
     inkscape:current-layer="svg2"><inkscape:grid
       type="xygrid"
       id="grid11201"
       empspacing="10"
       visible="true"
       enabled="true"
       snapvisiblegridlinesonly="true"
       spacingx="16px"
       spacingy="16px" /></sodipodi:namedview><g
     id="Layer_2"
     display="none"
     style="display:none"
     transform="translate(0,426)" /><g
     style="display:none"
     id="Layer_2-2"
     display="none"
     transform="translate(0,426)" /><path
     style="fill:#ffffff;fill-opacity:1"
     d="M 256.3125 -0.3125 C 114.93861 -0.3125 0.3125 114.30162 0.3125 255.6875 L 0.3125 491.21875 C 0.3125 502.48382 9.5221783 511.6875 20.78125 511.6875 L 64.4375 511.6875 L 64.4375 255.6875 C 64.4375 149.73088 150.36485 63.84375 256.3125 63.84375 C 362.26914 63.84375 448.15625 149.73088 448.15625 255.6875 L 448.15625 511.6875 L 491.8125 511.6875 C 503.07757 511.6875 512.28125 502.48382 512.28125 491.21875 L 512.28125 255.6875 C 512.28125 114.30162 397.69839 -0.3125 256.3125 -0.3125 z "
     id="path11" /><path
     style="fill:#ffffff;fill-opacity:1"
     d="m 171.37019,459.0599 19.71158,0 0.17279,-13.06281 17.59147,0.17087 0,12.89212 94.38343,0 0,-12.55081 17.4187,0.17086 0.34556,12.38013 19.80579,0.17086 0.24581,18.2915 -169.84718,-0.12351 z m -2.17967,-35.1436 -3.95165,-117.71473 4.01382,-124.3203 9.1799,-8.24868 65.90294,0.29137 0,-27.37603 -29.31186,-0.054 -0.17278,-18.5692 81.91137,0.34113 0.19125,18.28263 -29.79108,-0.22063 0.0716,27.88803 65.98081,-0.0707 9.26462,7.30419 4.8757,124.92348 -4.64283,117.71468 -9.07098,7.86936 -154.86136,-0.17087 z m 42.93848,-49.33182 -23.46625,0 0,15.45275 23.46625,0 z m 110.07426,0 -23.46627,0 0,15.45275 23.46627,0 z m 2.59181,-105.26369 0.25917,-46.04762 -3.19656,-3.72203 -132.33099,-0.17087 -3.28296,4.3194 -1e-5,90.50651 3.45575,3.51945 131.7384,0.17086 3.35719,-3.58402 z"
     id="path10162"
     inkscape:connector-curvature="0"
     sodipodi:nodetypes="cccccccccccccccccccccccccccccccccccccccccccccccccccc" /></svg>
