<?xml version="1.0" encoding="UTF-8" standalone="no"?>
<!-- Generator: Adobe Illustrator 17.0.1, SVG Export Plug-In . SVG Version: 6.00 Build 0)  -->

<svg
   xmlns:dc="http://purl.org/dc/elements/1.1/"
   xmlns:cc="http://creativecommons.org/ns#"
   xmlns:rdf="http://www.w3.org/1999/02/22-rdf-syntax-ns#"
   xmlns:svg="http://www.w3.org/2000/svg"
   xmlns="http://www.w3.org/2000/svg"
   xmlns:xlink="http://www.w3.org/1999/xlink"
   xmlns:sodipodi="http://sodipodi.sourceforge.net/DTD/sodipodi-0.dtd"
   xmlns:inkscape="http://www.inkscape.org/namespaces/inkscape"
   version="1.1"
   x="0px"
   y="0px"
   width="512"
   height="512"
   viewBox="0 0 512 512"
   enable-background="new 0 0 86 86"
   xml:space="preserve"
   id="svg2"
   inkscape:version="0.91 r13725"
   sodipodi:docname="cover.svg"
   inkscape:export-xdpi="90"
   inkscape:export-ydpi="90"><metadata
     id="metadata122"><rdf:RDF><cc:Work
         rdf:about=""><dc:format>image/svg+xml</dc:format><dc:type
           rdf:resource="http://purl.org/dc/dcmitype/StillImage" /><dc:title></dc:title></cc:Work></rdf:RDF></metadata><defs
     id="defs120"><linearGradient
       gradientTransform="translate(655,135)"
       y2="-134.7"
       x2="-612"
       y1="-49.299999"
       x1="-612"
       gradientUnits="userSpaceOnUse"
       id="SVGID_1_"><stop
         id="stop7"
         style="stop-color:#aaaaaa;stop-opacity:1;"
         offset="0" /><stop
         id="stop9"
         style="stop-color:#cccccc;stop-opacity:1;"
         offset="1" /></linearGradient><linearGradient
       inkscape:collect="always"
       xlink:href="#SVGID_1_-08"
       id="linearGradient10311-6"
       gradientUnits="userSpaceOnUse"
       gradientTransform="translate(655,135)"
       x1="-612"
       y1="-49.299999"
       x2="-612"
       y2="-134.7" /><linearGradient
       inkscape:collect="always"
       xlink:href="#SVGID_1_-6"
       id="linearGradient10311-3"
       gradientUnits="userSpaceOnUse"
       gradientTransform="translate(655,135)"
       x1="-612"
       y1="-49.299999"
       x2="-612"
       y2="-134.7" /><linearGradient
       gradientTransform="translate(655,135)"
       y2="-134.7"
       x2="-612"
       y1="-49.299999"
       x1="-612"
       gradientUnits="userSpaceOnUse"
       id="SVGID_1_-6"><stop
         id="stop7-3"
         style="stop-color:#dadada;stop-opacity:1;"
         offset="0" /><stop
         id="stop9-1"
         style="stop-color:#eeeeee;stop-opacity:1;"
         offset="1" /></linearGradient><clipPath
       id="clipPath16"
       clipPathUnits="userSpaceOnUse"><path
         inkscape:connector-curvature="0"
         id="path18"
         d="m 0,283.46 283.46,0 L 283.46,0 0,0 0,283.46 Z" /></clipPath><clipPath
       id="clipPath28"
       clipPathUnits="userSpaceOnUse"><path
         inkscape:connector-curvature="0"
         id="path30"
         d="m 0,283.46 283.46,0 L 283.46,0 0,0 0,283.46 Z" /></clipPath></defs><sodipodi:namedview
     pagecolor="#ffffff"
     bordercolor="#666666"
     borderopacity="1"
     objecttolerance="10"
     gridtolerance="10"
     guidetolerance="10"
     inkscape:pageopacity="0"
     inkscape:pageshadow="2"
     inkscape:window-width="1920"
     inkscape:window-height="1136"
     id="namedview118"
     showgrid="true"
     inkscape:showpageshadow="false"
     inkscape:zoom="1.8300781"
     inkscape:cx="256"
     inkscape:cy="256"
     inkscape:window-x="0"
     inkscape:window-y="27"
     inkscape:window-maximized="1"
     inkscape:current-layer="svg2"><inkscape:grid
       type="xygrid"
       id="grid11201"
       empspacing="4"
       visible="true"
       enabled="true"
       snapvisiblegridlinesonly="true"
       spacingx="16px"
       spacingy="16px" /></sodipodi:namedview><g
     id="Layer_2"
     display="none"
     style="display:none"
     transform="translate(0,426)" /><g
     style="display:none"
     id="Layer_2-2"
     display="none"
     transform="translate(0,426)" /><path
     style="fill:#ffffff;fill-opacity:1"
     d="M 256.3125 -0.3125 C 114.93861 -0.3125 0.3125 114.30162 0.3125 255.6875 L 0.3125 491.21875 C 0.3125 502.48382 9.5221783 511.6875 20.78125 511.6875 L 64.4375 511.6875 L 64.4375 255.6875 C 64.4375 149.73088 150.36485 63.84375 256.3125 63.84375 C 362.26914 63.84375 448.15625 149.73088 448.15625 255.6875 L 448.15625 511.6875 L 491.8125 511.6875 C 503.07757 511.6875 512.28125 502.48382 512.28125 491.21875 L 512.28125 255.6875 C 512.28125 114.30162 397.69839 -0.3125 256.3125 -0.3125 z "
     id="path11" /><g
     clip-path="url(#clipPath28)"
     id="g26"
     transform="matrix(1.4296265,0,0,-1.4296265,53.676051,503.45381)"
     style="fill:#ffffff;fill-opacity:1"><g
       transform="translate(186.7065,78.6084)"
       id="g32"
       style="fill:#ffffff;fill-opacity:1"><path
         inkscape:connector-curvature="0"
         id="path34"
         style="fill:#ffffff;fill-opacity:1;fill-rule:nonzero;stroke:none"
         d="m 0,0 c -4.537,0 -7.937,3.402 -7.937,7.937 0,4.918 3.4,8.697 7.937,8.697 4.917,0 8.695,-3.779 8.695,-8.697 C 8.695,3.402 4.917,0 0,0 m -96.755,31.749 0,86.181 103.182,0 0,-86.181 c -13.606,-4.153 -32.883,-6.421 -51.399,-6.421 -18.525,0 -37.8,2.645 -51.783,6.421 M -89.193,0 c -4.536,0 -7.937,3.402 -7.937,7.937 0,4.918 3.401,8.697 7.937,8.697 4.91,0 8.689,-3.779 8.689,-8.697 C -80.504,3.402 -84.283,0 -89.193,0 M 17.39,130.026 11.338,144.385 c -1.885,4.16 -4.151,6.426 -8.688,7.56 -15.123,3.778 -26.079,5.295 -40.444,5.67 l 0,12.473 26.455,0 c 3.402,0 6.427,3.026 6.427,6.802 0,4.16 -3.025,7.178 -6.427,7.178 l -66.898,0 c -4.153,0 -7.179,-3.018 -7.179,-7.178 0,-3.776 3.026,-6.802 7.179,-6.802 l 26.078,0 0,-12.473 c -14.739,-0.375 -26.454,-1.892 -40.435,-5.67 -4.918,-1.509 -7.562,-3.4 -9.454,-7.56 l -6.045,-14.359 c -1.893,-4.534 -1.893,-10.588 -1.893,-15.123 l 0,-127.656 c 0,-6.42 4.16,-10.205 10.589,-11.339 19.275,-3.778 35.9,-5.286 54.425,-5.286 17.759,0 34.767,1.508 54.425,5.286 6.045,1.134 10.58,4.919 10.58,11.339 l 0,127.656 c 0,4.535 -0.758,10.589 -2.643,15.123 M 4.16,-46.862 c 3.401,0 6.802,-3.028 6.802,-6.429 0,-4.534 -3.401,-7.179 -6.802,-7.179 l -98.272,0 c -3.776,0 -6.42,2.645 -6.42,7.179 0,3.401 2.644,6.429 6.42,6.429 l 10.589,0 0,10.58 13.223,-1.511 0,-9.069 50.648,0 0,9.069 13.23,1.511 0,-10.58 10.582,0 z" /></g></g></svg>
