<?xml version="1.0" encoding="UTF-8" standalone="no"?>
<!-- Generator: Adobe Illustrator 17.0.1, SVG Export Plug-In . SVG Version: 6.00 Build 0)  -->

<svg
   xmlns:dc="http://purl.org/dc/elements/1.1/"
   xmlns:cc="http://creativecommons.org/ns#"
   xmlns:rdf="http://www.w3.org/1999/02/22-rdf-syntax-ns#"
   xmlns:svg="http://www.w3.org/2000/svg"
   xmlns="http://www.w3.org/2000/svg"
   xmlns:xlink="http://www.w3.org/1999/xlink"
   xmlns:sodipodi="http://sodipodi.sourceforge.net/DTD/sodipodi-0.dtd"
   xmlns:inkscape="http://www.inkscape.org/namespaces/inkscape"
   version="1.1"
   x="0px"
   y="0px"
   width="86px"
   height="86px"
   viewBox="0 0 86 86"
   enable-background="new 0 0 86 86"
   xml:space="preserve"
   id="svg2"
   inkscape:version="0.48.5 r10040"
   sodipodi:docname="helsinki-transit-stops.svg"
   inkscape:export-xdpi="90"
   inkscape:export-ydpi="90"><metadata
     id="metadata122"><rdf:RDF><cc:Work
         rdf:about=""><dc:format>image/svg+xml</dc:format><dc:type
           rdf:resource="http://purl.org/dc/dcmitype/StillImage" /><dc:title></dc:title></cc:Work></rdf:RDF></metadata><defs
     id="defs120"><linearGradient
       gradientTransform="translate(655,135)"
       y2="-134.7"
       x2="-612"
       y1="-49.3"
       x1="-612"
       gradientUnits="userSpaceOnUse"
       id="SVGID_1_"><stop
         id="stop7"
         style="stop-color:#dadada;stop-opacity:1;"
         offset="0" /><stop
         id="stop9"
         style="stop-color:#eeeeee;stop-opacity:1;"
         offset="1" /></linearGradient><linearGradient
       inkscape:collect="always"
       xlink:href="#SVGID_1_"
       id="linearGradient10311"
       gradientUnits="userSpaceOnUse"
       gradientTransform="translate(655,135)"
       x1="-612"
       y1="-49.3"
       x2="-612"
       y2="-134.7" /><linearGradient
       inkscape:collect="always"
       xlink:href="#SVGID_1_-08"
       id="linearGradient10311-6"
       gradientUnits="userSpaceOnUse"
       gradientTransform="translate(655,135)"
       x1="-612"
       y1="-49.299999"
       x2="-612"
       y2="-134.7" /><linearGradient
       inkscape:collect="always"
       xlink:href="#SVGID_1_-6"
       id="linearGradient10311-3"
       gradientUnits="userSpaceOnUse"
       gradientTransform="translate(655,135)"
       x1="-612"
       y1="-49.299999"
       x2="-612"
       y2="-134.7" /><linearGradient
       gradientTransform="translate(655,135)"
       y2="-134.7"
       x2="-612"
       y1="-49.299999"
       x1="-612"
       gradientUnits="userSpaceOnUse"
       id="SVGID_1_-6"><stop
         id="stop7-3"
         style="stop-color:#dadada;stop-opacity:1;"
         offset="0" /><stop
         id="stop9-1"
         style="stop-color:#eeeeee;stop-opacity:1;"
         offset="1" /></linearGradient></defs><sodipodi:namedview
     pagecolor="#ffffff"
     bordercolor="#666666"
     borderopacity="1"
     objecttolerance="10"
     gridtolerance="10"
     guidetolerance="10"
     inkscape:pageopacity="0"
     inkscape:pageshadow="2"
     inkscape:window-width="1920"
     inkscape:window-height="1136"
     id="namedview118"
     showgrid="true"
     inkscape:showpageshadow="false"
     inkscape:zoom="11.27907"
     inkscape:cx="43"
     inkscape:cy="43"
     inkscape:window-x="0"
     inkscape:window-y="27"
     inkscape:window-maximized="1"
     inkscape:current-layer="svg2"><inkscape:grid
       type="xygrid"
       id="grid11201"
       empspacing="10"
       visible="true"
       enabled="true"
       snapvisiblegridlinesonly="true"
       spacingx="1px"
       spacingy="1px" /></sodipodi:namedview><g
     id="Layer_2"
     display="none" /><path
     inkscape:connector-curvature="0"
     style="fill:url(#linearGradient10311)"
     id="path11"
     d="M 43,0.3 C 19.419,0.3 0.3,19.417 0.3,43 v 39.285 c 0,1.879 1.538,3.416 3.416,3.416 H 43 82.284 c 1.879,0 3.416,-1.537 3.416,-3.416 V 43 C 85.7,19.417 66.583,0.3 43,0.3 z" /><g
     style="display:none"
     id="Layer_2-2"
     display="none" /><path
     inkscape:connector-curvature="0"
     style="fill:#2d76bb;fill-opacity:1"
     id="path11-9"
     d="m 43,10.999625 c -17.671944,0 -32,14.326557 -32,32 L 11,85.7 l 32,0 32,0 0,-42.700375 c 0,-17.673443 -14.326557,-32 -32,-32 z"
     sodipodi:nodetypes="sscccss" /><path
     style="fill:#ffffff;fill-opacity:1"
     d="m 28.834307,76.920527 3.287869,0 0.02882,-2.17886 2.934237,0.02847 0,2.150393 15.743045,0 0,-2.093458 2.905419,0.02847 0.05764,2.064991 3.303582,0.02847 0.041,3.050997 -28.33031,-0.02055 z m -0.363567,-5.861912 -0.65913,-19.634671 0.6695,-20.73648 1.531197,-1.375878 10.992533,0.04862 0,-4.566285 -4.889183,-0.0091 -0.02882,-3.097325 13.66272,0.05693 0.0319,3.049526 -4.969117,-0.0368 0.01194,4.651686 11.005521,-0.01182 1.545328,1.218328 0.813261,20.837096 -0.774419,19.634671 -1.513029,1.3126 -25.830693,-0.02847 z m 7.162089,-8.228487 -3.914144,0 0,2.5775 3.914144,0 z m 18.360257,0 -3.914146,0 0,2.5775 3.914146,0 z m 0.432311,-17.557858 0.04323,-7.68069 -0.533184,-0.620833 -22.072653,-0.02847 -0.547594,0.720469 -1e-6,15.096384 0.576415,0.587043 21.97381,0.02847 0.559976,-0.59781 z"
     id="path10162"
     inkscape:connector-curvature="0"
     sodipodi:nodetypes="cccccccccccccccccccccccccccccccccccccccccccccccccccc" /></svg>
